<svg width="900" height="900" viewBox="0 0 900 900" fill="none" xmlns="http://www.w3.org/2000/svg">
<g clip-path="url(#clip0_852_4771)">
<circle cx="446" cy="423" r="258" fill="white"/>
<path d="M169.726 286.028L169.596 286.103L169.479 286.196C163.294 291.124 154.263 298.987 147.284 306.566C143.804 310.345 140.756 314.137 138.84 317.515C137.883 319.201 137.154 320.878 136.831 322.463C136.507 324.054 136.56 325.728 137.411 327.201C140.227 332.078 145.698 332.164 150.234 331.064C154.902 329.932 159.667 327.348 162.635 325.334L163.009 325.08L163.238 324.69L190.32 278.454L194.141 271.932L187.594 275.711L169.726 286.028Z" fill="#85C3B4" stroke="white" stroke-width="4"/>
<path d="M640.752 225.478C641.785 225.167 642.886 225.292 643.864 225.836C674.81 243.099 696.366 258.581 714.978 286.667C725.239 302.152 728.465 314.427 721.829 350.42C716.416 379.804 710.483 397.033 706.154 409.608C705.334 411.977 704.578 414.179 703.885 416.277C703.502 417.464 702.607 418.338 701.441 418.689C700.456 418.986 699.386 418.862 698.493 418.356C697.613 417.857 696.975 417.019 696.702 416.008C695.888 412.995 695.027 407.809 694.02 401.797C691.739 388.155 688.288 367.542 683.328 362.115C672.343 350.084 652.006 354.242 635.509 359.207C632.105 360.232 628.905 361.28 625.811 362.296C623.218 363.14 620.771 363.951 618.581 364.61C615.903 365.416 613.917 365.919 612.309 366.19C610.71 366.459 609.199 365.63 608.536 364.12C607.873 362.611 608.281 360.918 609.552 359.909C616.996 354.007 632.574 342.387 646.319 332.126C655.117 325.561 662.722 319.886 666.473 316.996C679.329 307.076 654.446 259.088 638.467 231.367C637.838 230.282 637.727 229.01 638.166 227.87C638.611 226.717 639.573 225.822 640.749 225.468L640.752 225.478Z" fill="#1E52DA"/>
<path d="M700.868 416.75C699.997 417.012 698.941 416.587 698.648 415.507C695.942 405.411 692.354 369.025 684.807 360.757C673.138 347.977 652.169 352.081 634.936 357.268C628.567 359.185 622.701 361.247 618.005 362.661C615.681 363.36 613.643 363.899 611.975 364.179C610.466 364.431 609.602 362.462 610.805 361.506C623.04 351.805 658.126 325.993 667.7 318.611C682.988 306.824 653.345 253.179 640.195 230.348C639.469 229.08 640.207 227.754 641.335 227.415C641.813 227.271 642.366 227.306 642.916 227.608C671.705 243.662 694.294 259.077 713.334 287.788C723.595 303.273 726.313 315.075 719.876 350.031C713.469 384.809 706.343 402.439 702.006 415.611C701.811 416.211 701.372 416.587 700.874 416.737M702.046 420.63C703.834 420.092 705.202 418.746 705.803 416.931C706.483 414.858 707.255 412.641 708.059 410.287C712.412 397.652 718.371 380.341 723.813 350.81C730.571 314.112 727.236 301.509 716.651 285.537C697.797 257.099 676.04 241.466 644.828 224.05C643.376 223.245 641.722 223.053 640.183 223.516C638.433 224.043 636.992 225.389 636.321 227.109C635.659 228.826 635.818 230.742 636.766 232.367C640.821 239.393 653.155 260.793 660.931 280.115C664.495 288.976 672.063 310.134 665.281 315.359C661.541 318.247 653.951 323.906 645.163 330.468C631.409 340.732 615.814 352.367 608.336 358.29C606.364 359.849 605.704 362.574 606.732 364.918C607.758 367.252 610.207 368.595 612.679 368.18C614.366 367.895 616.432 367.38 619.196 366.548C621.405 365.883 623.864 365.079 626.474 364.219C629.558 363.206 632.739 362.164 636.124 361.145C652.066 356.347 671.67 352.282 681.893 363.481C686.437 368.46 689.963 389.528 692.07 402.108C693.081 408.172 693.958 413.406 694.8 416.517C695.213 418.059 696.194 419.345 697.552 420.115C698.913 420.894 700.554 421.079 702.046 420.63Z" fill="white"/>
<path d="M662.353 262.236L607.466 271.802C606.367 271.993 605.637 273.046 605.843 274.142L608.763 289.658C608.884 290.301 609.312 290.844 609.909 291.112L644.234 306.529C644.549 306.67 644.895 306.727 645.238 306.696L678.774 303.588C679.345 303.535 679.866 303.24 680.204 302.777L693.946 283.989C694.631 283.052 694.378 281.731 693.395 281.114L663.76 262.512C663.341 262.25 662.84 262.151 662.353 262.236Z" fill="white"/>
<path d="M254.915 600.77C253.795 601.107 252.629 600.946 251.613 600.312C221.756 581.75 201.154 565.414 184.249 536.834C174.934 521.08 172.449 508.837 181.237 473.776C188.41 445.144 195.371 428.512 200.445 416.364C201.408 414.08 202.29 411.945 203.102 409.925C203.532 408.856 204.4 408.062 205.482 407.736C206.497 407.43 207.604 407.567 208.518 408.107C209.42 408.639 210.037 409.509 210.249 410.562C210.873 413.57 211.43 418.718 212.077 424.685C213.539 438.217 215.745 458.659 220.364 464.255C232.599 479.057 259.807 471.818 277.813 467.036C283.345 465.569 288.131 464.295 291.534 463.908C293.14 463.728 294.61 464.622 295.179 466.132C295.752 467.652 295.242 469.288 293.914 470.22C286.127 475.645 269.873 486.281 255.528 495.663C246.348 501.664 238.419 506.859 234.507 509.509C221.076 518.596 243.04 567.073 257.333 595.165C257.877 596.244 257.933 597.439 257.465 598.52C257.006 599.598 256.051 600.449 254.921 600.789L254.915 600.77Z" fill="#85C3B4"/>
<path d="M206.056 409.642C206.956 409.371 208.056 409.833 208.289 410.954C210.391 421.025 211.789 456.999 218.821 465.513C235.724 485.97 277.471 467.494 291.751 465.879C293.275 465.703 294.02 467.692 292.757 468.563C279.964 477.479 243.37 501.067 233.367 507.837C217.395 518.649 243.769 572.931 255.532 596.052C256.166 597.292 255.418 598.52 254.327 598.848C253.81 599.004 253.22 598.952 252.657 598.609C224.882 581.342 203.241 565.027 185.957 535.808C176.641 520.055 174.629 508.306 183.166 474.25C191.651 440.367 199.827 423.401 204.954 410.663C205.175 410.116 205.587 409.783 206.056 409.642ZM204.903 405.811C203.237 406.313 201.904 407.539 201.246 409.168C200.44 411.175 199.539 413.316 198.592 415.585C193.485 427.795 186.495 444.509 179.291 473.276C170.334 509.025 172.913 521.584 182.527 537.843C199.643 566.778 220.431 583.277 250.558 602.009C252.046 602.929 253.845 603.181 255.492 602.685C257.139 602.189 258.597 600.926 259.303 599.282C259.989 597.676 259.924 595.827 259.11 594.234C255.485 587.117 244.458 565.435 237.846 546.037C234.815 537.143 228.538 515.943 235.617 511.149C239.519 508.502 247.444 503.328 256.612 497.321C270.963 487.926 287.237 477.284 295.05 471.842C297.113 470.406 297.935 467.757 297.042 465.415C296.156 463.06 293.79 461.621 291.296 461.902C287.75 462.301 282.897 463.594 277.288 465.084C259.777 469.739 233.315 476.784 221.898 462.969C217.658 457.833 215.4 436.937 214.055 424.455C213.403 418.437 212.844 413.248 212.201 410.142C211.865 408.541 210.921 407.206 209.534 406.381C208.147 405.556 206.455 405.344 204.903 405.811Z" fill="white"/>
<path d="M270.456 576.044L212.622 567.555C211.491 567.389 210.729 566.311 210.95 565.19L214.064 549.388C214.189 548.754 214.612 548.219 215.2 547.953L251.479 531.502C251.78 531.366 252.111 531.306 252.441 531.329L287.821 533.738C288.393 533.777 288.921 534.06 289.27 534.514L303.68 553.253C304.399 554.189 304.156 555.542 303.154 556.168L271.806 575.761C271.404 576.013 270.925 576.113 270.456 576.044Z" fill="white"/>
<path d="M446.756 583.615C446.756 583.615 468.296 504.113 468.171 493.947C468.036 483.159 468.631 467.545 457.011 471.199C449.74 473.481 437.289 501.196 430.522 506.052C423.755 510.909 412.687 520.109 412.581 527.911C412.475 535.712 417.088 558.082 425.636 570.14" fill="#1E52DA"/>
<path d="M446.756 583.615C446.756 583.615 468.296 504.113 468.171 493.947C468.036 483.159 468.631 467.545 457.011 471.199C449.74 473.481 437.289 501.196 430.522 506.052C423.755 510.909 412.687 520.109 412.581 527.911C412.475 535.712 417.088 558.082 425.636 570.14" stroke="white" stroke-width="4" stroke-linecap="round" stroke-linejoin="round"/>
<path d="M613.882 643.654C609.701 647.042 612.047 653.793 617.426 653.866C651.577 654.322 723.956 659.209 730.026 656.024C736.096 652.84 743.114 588.653 749.391 561.314C750.447 556.704 745.792 552.862 741.471 554.779L702.941 571.796C702.479 571.998 702.038 572.266 701.643 572.584L613.882 643.654Z" fill="#1E52DA" stroke="white" stroke-width="4" stroke-linecap="round" stroke-linejoin="round"/>
<path d="M429.338 687.398L506.608 752.354C507.995 753.524 509.972 753.744 511.536 752.834C515.534 750.503 525.244 748.103 543.527 760.896C543.527 760.896 546.672 743.24 565.458 745.7C571.758 745.015 570.326 740.674 569.205 734.244C568.448 729.856 571.855 725.907 576.309 725.892C580.764 725.878 584.999 724.091 589.93 721.981C591.567 721.279 592.439 719.492 592.022 717.758C590.952 713.371 586.155 704.267 597.403 703.993C613.432 703.607 607.834 693.544 607.834 693.544C607.834 693.544 603.066 688.285 615.02 687.235L620.657 686.739C622.652 686.567 623.261 683.94 621.548 682.899L594.099 666.265L429.332 687.411L429.338 687.398Z" fill="#1E52DA" stroke="white" stroke-width="4" stroke-linecap="round" stroke-linejoin="round"/>
<path d="M260.325 638.746C399.548 766.794 631.864 725.985 720.533 560.956C762.207 483.394 767.72 396.268 733.497 317.645C732.718 315.853 730.067 316.275 729.899 318.216C728.74 331.504 724.102 354.507 722.852 360.136C705.935 436.575 673.913 488.989 607.549 519.532C545.048 548.296 480.725 534.166 416.874 519.621C397.556 515.222 377.163 509.956 356.139 506.134L355.598 506.349C303.25 502.367 264.536 524.536 217.004 546.967C173.008 567.718 237.468 617.732 260.327 638.756L260.325 638.746ZM280.508 559.663C260.459 562.93 201.766 570.728 218.385 546.802C241.13 532.887 253.41 544.959 280.889 556.175C282.602 556.871 282.32 559.369 280.499 559.666L280.508 559.663Z" fill="#1E52DA" stroke="white" stroke-width="4" stroke-linecap="round" stroke-linejoin="round"/>
<path d="M353.789 661.4C682.712 772.305 756.032 424.609 754.979 401.753" stroke="white" stroke-width="4" stroke-linecap="round" stroke-linejoin="round"/>
<path d="M414.674 624.277C630.454 709.711 749.963 405.038 753.436 389.686" stroke="white" stroke-width="4" stroke-linecap="round" stroke-linejoin="round"/>
<path d="M410.303 557.711C650.408 674.349 745.684 381.732 746.602 353.102" stroke="white" stroke-width="4" stroke-linecap="round" stroke-linejoin="round"/>
<path d="M268.981 591.8C263.296 593.511 260.074 599.507 261.785 605.192C263.496 610.877 269.492 614.099 275.177 612.387C280.862 610.676 284.084 604.68 282.373 598.995C280.662 593.31 274.666 590.089 268.981 591.8Z" fill="white" stroke="white" stroke-width="2" stroke-miterlimit="10"/>
<path d="M270.073 597.267C267.27 598.111 265.682 601.067 266.525 603.87C267.369 606.673 270.325 608.261 273.128 607.417C275.931 606.574 277.519 603.617 276.676 600.815C275.832 598.012 272.876 596.423 270.073 597.267Z" fill="#1E52DA"/>
<path d="M265.929 600.676C264.75 601.031 264.082 602.274 264.437 603.454C264.792 604.633 266.035 605.301 267.215 604.946C268.394 604.591 269.062 603.348 268.707 602.168C268.352 600.989 267.109 600.321 265.929 600.676Z" fill="white"/>
<path d="M421.739 602.611C421.739 602.611 501.241 624.151 511.406 624.026C522.195 623.891 537.809 624.486 534.155 612.866C531.872 605.595 504.158 593.145 499.301 586.377C494.445 579.61 485.244 568.542 477.443 568.436C469.641 568.33 447.272 572.943 435.214 581.491" fill="#1E52DA"/>
<path d="M421.739 602.611C421.739 602.611 501.241 624.151 511.406 624.026C522.195 623.891 537.809 624.486 534.155 612.866C531.872 605.595 504.158 593.145 499.301 586.377C494.445 579.61 485.244 568.542 477.443 568.436C469.641 568.33 447.272 572.943 435.214 581.491" stroke="white" stroke-width="4" stroke-linecap="round" stroke-linejoin="round"/>
<path d="M298.53 668.634C298.53 668.634 496.457 672.064 384.113 512.335" stroke="white" stroke-width="4" stroke-linecap="round" stroke-linejoin="round"/>
<path d="M543.527 760.896L505.31 710.43" stroke="white" stroke-width="4" stroke-linecap="round" stroke-linejoin="round"/>
<path d="M569.377 744.01L529.656 706.1" stroke="white" stroke-width="4" stroke-linecap="round" stroke-linejoin="round"/>
<path d="M589.94 721.978L559.522 697.109" stroke="white" stroke-width="4" stroke-linecap="round" stroke-linejoin="round"/>
<path d="M608.361 699.422L585.851 686.188" stroke="white" stroke-width="4" stroke-linecap="round" stroke-linejoin="round"/>
<path d="M617.226 520.838C617.226 520.838 626.775 461.519 625.814 457.84C624.852 454.161 630.341 446.963 640.25 451.26C650.171 455.563 676.1 464.927 676.1 464.927C676.1 464.927 664.287 493.651 662.401 501.33" fill="#1E52DA"/>
<path d="M617.226 520.838C617.226 520.838 626.775 461.519 625.814 457.84C624.852 454.161 630.341 446.963 640.25 451.26C650.171 455.563 676.1 464.927 676.1 464.927C676.1 464.927 664.287 493.651 662.401 501.33" stroke="white" stroke-width="4" stroke-linecap="round" stroke-linejoin="round"/>
<path d="M396.296 127.759C390.86 124.236 353.938 87.0919 343.59 75.889C341.762 73.9118 338.943 73.1835 336.396 74.0545C329.33 76.4632 314.187 81.8043 307.781 95.2197C298.231 115.221 288.22 120.438 281.946 123.882C275.673 127.326 269.706 150.458 261.475 153.019C256.319 154.623 251.396 159.363 248.429 162.689C246.829 164.487 247.136 167.276 249.084 168.685L260.763 177.127L396.296 127.759Z" fill="#85C3B4" stroke="white" stroke-width="4" stroke-linecap="round" stroke-linejoin="round"/>
<path d="M422.685 342.005C419.836 342.811 416.942 341.625 415.48 339.057C414.018 336.49 414.463 333.39 416.605 331.346L449.775 299.713C450.003 299.498 450.277 299.332 450.574 299.243C450.899 299.145 451.251 299.133 451.597 299.207L511.752 312.921C512.638 313.124 513.28 313.902 513.306 314.824C513.327 315.726 512.744 316.528 511.882 316.787C511.872 316.79 422.676 342.008 422.676 342.008L422.685 342.005Z" fill="#85C3B4"/>
<path d="M451.163 301.165L511.328 314.876L422.15 340.088C417.808 341.312 414.731 335.909 417.992 332.797L451.163 301.165ZM450.01 297.334C449.416 297.513 448.863 297.826 448.401 298.268L415.23 329.901C412.415 332.586 411.814 336.662 413.742 340.05C415.67 343.438 419.491 344.993 423.233 343.929L512.411 318.717C512.411 318.717 512.458 318.703 512.478 318.697C514.201 318.178 515.368 316.574 515.324 314.759C515.276 312.936 514 311.367 512.218 310.964L452.053 297.252C451.368 297.093 450.668 297.126 450.007 297.325L450.01 297.334Z" fill="white"/>
<path d="M272.207 328.638L278.81 374.167C279.583 379.479 272.461 378.542 268.353 372.803C257.829 358.102 244.187 337.239 241.611 324.553" fill="#85C3B4"/>
<path d="M272.207 328.638L278.81 374.167C279.583 379.479 272.461 378.542 268.353 372.803C257.829 358.102 244.187 337.239 241.611 324.553" stroke="white" stroke-width="4" stroke-linecap="round" stroke-linejoin="round"/>
<path d="M642.142 191.613C502.922 63.5751 270.605 104.384 181.937 269.413C140.263 346.975 134.757 434.089 168.973 512.724C169.752 514.515 172.403 514.093 172.571 512.153C173.73 498.865 178.367 475.862 179.618 470.233C196.535 393.793 228.557 341.38 294.92 310.837C357.422 282.072 421.744 296.203 485.596 310.747C504.913 315.146 525.597 320.44 546.611 324.265L546.871 324.02C599.22 328.001 636.761 320.743 684.296 298.322C728.292 277.571 665.002 212.637 642.145 191.622L642.142 191.613ZM618.937 283.312C618.937 283.312 704.649 254.6 687.531 295.05C687.531 295.05 677.157 277.516 618.937 283.312Z" fill="#85C3B4" stroke="white" stroke-width="4" stroke-linecap="round" stroke-linejoin="round"/>
<path d="M455.339 216.435L410.912 207.406C407.518 206.715 403.993 207.285 400.981 209.006L355.509 234.984C353.006 236.417 353.773 240.217 356.633 240.557C378.532 243.124 434.073 249.037 449.558 244.867" fill="#85C3B4"/>
<path d="M455.339 216.435L410.912 207.406C407.518 206.715 403.993 207.285 400.981 209.006L355.509 234.984C353.006 236.417 353.773 240.217 356.633 240.557C378.532 243.124 434.073 249.037 449.558 244.867" stroke="white" stroke-width="4" stroke-linecap="round" stroke-linejoin="round"/>
<path d="M629.736 248.585C635.421 246.874 638.642 240.878 636.931 235.193C635.22 229.508 629.224 226.286 623.539 227.997C617.854 229.709 614.632 235.704 616.343 241.39C618.055 247.075 624.05 250.296 629.736 248.585Z" fill="white" stroke="white" stroke-width="2" stroke-miterlimit="10"/>
<path d="M629.22 245.033C627.353 245.595 625.372 245.398 623.662 244.471C620.112 242.564 618.777 238.13 620.685 234.58C621.609 232.86 623.142 231.605 625.009 231.043C626.877 230.481 628.858 230.679 630.577 231.602C634.127 233.51 635.462 237.944 633.554 241.494C632.63 243.213 631.097 244.468 629.22 245.033Z" fill="#85C3B4"/>
<path d="M625.588 232.967C626.891 232.576 628.333 232.684 629.626 233.371C632.205 234.756 633.173 237.974 631.788 240.553C631.092 241.848 629.946 242.726 628.644 243.118C627.341 243.51 625.889 243.404 624.606 242.714C622.027 241.329 621.059 238.111 622.444 235.533C623.14 234.237 624.286 233.359 625.588 232.967ZM624.436 229.137C622.051 229.855 620.1 231.455 618.922 233.648C616.492 238.17 618.192 243.82 622.715 246.249C624.907 247.427 627.418 247.685 629.802 246.967C632.187 246.249 634.138 244.649 635.316 242.456C636.494 240.264 636.751 237.753 636.034 235.369C635.316 232.985 633.716 231.033 631.523 229.855C629.331 228.677 626.82 228.42 624.436 229.137Z" fill="white"/>
<path d="M632.79 239.719C633.969 239.364 634.638 238.12 634.283 236.941C633.928 235.761 632.684 235.093 631.504 235.448C630.325 235.803 629.657 237.047 630.012 238.226C630.367 239.406 631.611 240.074 632.79 239.719Z" fill="white"/>
<path d="M631.101 184.585C631.101 184.585 478.454 193.246 557.31 323.984" stroke="white" stroke-width="4" stroke-linecap="round" stroke-linejoin="round"/>
<path d="M558.018 209.017C257.417 101.335 184.623 383.018 184.623 383.018" stroke="white" stroke-width="4" stroke-linecap="round" stroke-linejoin="round"/>
<path d="M234.204 306.293L196.051 314.884C191.602 315.889 192.894 321.849 197.947 323.649C210.887 328.266 229.147 333.662 239.828 331.919" fill="#85C3B4"/>
<path d="M234.204 306.293L196.051 314.884C191.602 315.889 192.894 321.849 197.947 323.649C210.887 328.266 229.147 333.662 239.828 331.919" stroke="white" stroke-width="4" stroke-linecap="round" stroke-linejoin="round"/>
<path d="M547.931 165.581C549.301 165.169 550.077 163.724 549.665 162.354C549.252 160.985 547.808 160.208 546.438 160.621C545.068 161.033 544.292 162.478 544.704 163.847C545.117 165.217 546.561 165.993 547.931 165.581Z" fill="white" stroke="white" stroke-width="2" stroke-miterlimit="10"/>
<path d="M559.024 156.394C561.563 155.63 563.001 152.953 562.237 150.414C561.473 147.876 558.796 146.437 556.257 147.202C553.719 147.966 552.281 150.643 553.045 153.181C553.809 155.72 556.486 157.158 559.024 156.394Z" fill="white" stroke="white" stroke-width="2" stroke-miterlimit="10"/>
<path d="M542.164 154.158C542.852 153.951 543.241 153.226 543.034 152.538C542.827 151.851 542.102 151.461 541.415 151.668C540.727 151.875 540.338 152.6 540.545 153.288C540.752 153.975 541.477 154.365 542.164 154.158Z" fill="white" stroke="white" stroke-width="2" stroke-miterlimit="10"/>
<path d="M566.196 167.07C566.883 166.863 567.273 166.138 567.066 165.451C566.859 164.763 566.134 164.373 565.446 164.58C564.759 164.787 564.369 165.512 564.576 166.2C564.783 166.887 565.508 167.277 566.196 167.07Z" fill="white" stroke="white" stroke-width="2" stroke-miterlimit="10"/>
<path d="M532.117 171.018C533.72 170.536 534.628 168.846 534.145 167.244C533.663 165.641 531.973 164.733 530.371 165.216C528.768 165.698 527.86 167.388 528.343 168.99C528.825 170.593 530.515 171.501 532.117 171.018Z" fill="white" stroke="white" stroke-width="2" stroke-miterlimit="10"/>
<path d="M433.428 152.727C434.115 152.52 434.505 151.795 434.298 151.108C434.091 150.42 433.366 150.031 432.678 150.238C431.991 150.445 431.601 151.17 431.808 151.857C432.015 152.545 432.74 152.934 433.428 152.727Z" fill="white" stroke="white" stroke-width="2" stroke-miterlimit="10"/>
<path d="M440.605 145.345C441.292 145.139 441.682 144.413 441.475 143.726C441.268 143.038 440.543 142.649 439.855 142.856C439.168 143.063 438.778 143.788 438.985 144.475C439.192 145.163 439.917 145.552 440.605 145.345Z" fill="white" stroke="white" stroke-width="2" stroke-miterlimit="10"/>
<path d="M444.717 137.392C445.404 137.185 445.794 136.46 445.587 135.773C445.38 135.085 444.655 134.696 443.968 134.903C443.28 135.11 442.89 135.835 443.097 136.522C443.304 137.21 444.029 137.599 444.717 137.392Z" fill="white" stroke="white" stroke-width="2" stroke-miterlimit="10"/>
<path d="M454.498 149.069C455.185 148.862 455.575 148.137 455.368 147.45C455.161 146.762 454.436 146.372 453.748 146.579C453.061 146.786 452.671 147.511 452.878 148.199C453.085 148.886 453.81 149.276 454.498 149.069Z" fill="white" stroke="white" stroke-width="2" stroke-miterlimit="10"/>
<path d="M445.662 156.145C447.265 155.663 448.173 153.973 447.69 152.371C447.208 150.768 445.518 149.86 443.916 150.343C442.313 150.825 441.405 152.515 441.887 154.117C442.37 155.72 444.06 156.628 445.662 156.145Z" fill="white" stroke="white" stroke-width="2" stroke-miterlimit="10"/>
<path d="M440.171 174.507C441.773 174.024 442.681 172.334 442.199 170.732C441.717 169.13 440.027 168.222 438.424 168.704C436.822 169.186 435.914 170.876 436.396 172.479C436.879 174.081 438.569 174.989 440.171 174.507Z" fill="white" stroke="white" stroke-width="2" stroke-miterlimit="10"/>
<path d="M331.359 221.817C332.047 221.61 332.437 220.885 332.23 220.198C332.023 219.51 331.298 219.121 330.61 219.327C329.923 219.534 329.533 220.259 329.74 220.947C329.947 221.634 330.672 222.024 331.359 221.817Z" fill="white" stroke="white" stroke-width="2" stroke-miterlimit="10"/>
<path d="M321.31 238.668C322.912 238.186 323.82 236.496 323.338 234.893C322.855 233.291 321.165 232.383 319.563 232.865C317.961 233.347 317.053 235.037 317.535 236.64C318.017 238.242 319.707 239.15 321.31 238.668Z" fill="white" stroke="white" stroke-width="2" stroke-miterlimit="10"/>
<path d="M243.69 216.718C244.377 216.511 244.767 215.786 244.56 215.098C244.353 214.411 243.628 214.021 242.94 214.228C242.253 214.435 241.863 215.16 242.07 215.847C242.277 216.535 243.002 216.924 243.69 216.718Z" fill="white" stroke="white" stroke-width="2" stroke-miterlimit="10"/>
<path d="M396.605 236.275C397.293 236.068 397.682 235.343 397.475 234.656C397.268 233.968 396.543 233.579 395.856 233.785C395.168 233.992 394.779 234.717 394.986 235.405C395.192 236.092 395.918 236.482 396.605 236.275Z" fill="white" stroke="white" stroke-width="2" stroke-miterlimit="10"/>
<path d="M324.969 176.161C326.572 175.679 327.48 173.989 326.997 172.386C326.515 170.784 324.825 169.876 323.223 170.358C321.62 170.84 320.712 172.53 321.195 174.133C321.677 175.735 323.367 176.643 324.969 176.161Z" fill="white" stroke="white" stroke-width="2" stroke-miterlimit="10"/>
<path d="M219.605 331.103C221.207 330.621 222.115 328.931 221.633 327.329C221.151 325.726 219.461 324.818 217.858 325.301C216.256 325.783 215.348 327.473 215.83 329.075C216.313 330.678 218.003 331.586 219.605 331.103Z" fill="white" stroke="white" stroke-width="2" stroke-miterlimit="10"/>
<path d="M351.398 133.207C351.425 131.678 350.278 130.417 348.837 130.393C347.395 130.368 346.206 131.588 346.179 133.117C346.153 134.647 347.3 135.907 348.741 135.932C350.182 135.957 351.372 134.737 351.398 133.207Z" fill="white" stroke="white" stroke-width="2" stroke-miterlimit="10"/>
<path d="M416.65 138.238C417.337 138.031 417.727 137.306 417.52 136.619C417.313 135.931 416.588 135.541 415.901 135.748C415.213 135.955 414.824 136.68 415.03 137.368C415.237 138.055 415.962 138.445 416.65 138.238Z" fill="white" stroke="white" stroke-width="2" stroke-miterlimit="10"/>
<path d="M261.181 228.893C261.868 228.686 262.258 227.961 262.051 227.274C261.844 226.586 261.119 226.197 260.431 226.404C259.744 226.611 259.354 227.336 259.561 228.023C259.768 228.711 260.493 229.1 261.181 228.893Z" fill="white" stroke="white" stroke-width="2" stroke-miterlimit="10"/>
<path d="M242.792 230.251C243.48 230.044 243.869 229.319 243.662 228.631C243.455 227.944 242.73 227.554 242.043 227.761C241.355 227.968 240.966 228.693 241.173 229.381C241.379 230.068 242.105 230.458 242.792 230.251Z" fill="white" stroke="white" stroke-width="2" stroke-miterlimit="10"/>
<path d="M478.554 167.164C479.241 166.957 479.631 166.232 479.424 165.544C479.217 164.857 478.492 164.467 477.804 164.674C477.117 164.881 476.727 165.606 476.934 166.294C477.141 166.981 477.866 167.371 478.554 167.164Z" fill="white" stroke="white" stroke-width="2" stroke-miterlimit="10"/>
<path d="M493.979 155.994C494.667 155.787 495.056 155.062 494.849 154.374C494.642 153.687 493.917 153.297 493.23 153.504C492.542 153.711 492.153 154.436 492.36 155.124C492.566 155.811 493.292 156.201 493.979 155.994Z" fill="white" stroke="white" stroke-width="2" stroke-miterlimit="10"/>
<path d="M366.584 144.618C367.272 144.411 367.661 143.686 367.454 142.998C367.247 142.311 366.522 141.921 365.835 142.128C365.147 142.335 364.758 143.06 364.965 143.748C365.171 144.435 365.897 144.825 366.584 144.618Z" fill="white" stroke="white" stroke-width="2" stroke-miterlimit="10"/>
<path d="M379.913 166.557C381.516 166.075 382.424 164.385 381.941 162.783C381.459 161.18 379.769 160.272 378.167 160.755C376.564 161.237 375.656 162.927 376.138 164.529C376.621 166.132 378.311 167.04 379.913 166.557Z" fill="white" stroke="white" stroke-width="2" stroke-miterlimit="10"/>
<path d="M225.273 267.772C225.96 267.565 226.35 266.84 226.143 266.153C225.936 265.465 225.211 265.076 224.523 265.283C223.836 265.489 223.446 266.215 223.653 266.902C223.86 267.59 224.585 267.979 225.273 267.772Z" fill="white" stroke="white" stroke-width="2" stroke-miterlimit="10"/>
<path d="M206.309 269.616C206.997 269.409 207.386 268.684 207.179 267.996C206.972 267.309 206.247 266.919 205.56 267.126C204.872 267.333 204.483 268.058 204.69 268.746C204.897 269.433 205.622 269.823 206.309 269.616Z" fill="white" stroke="white" stroke-width="2" stroke-miterlimit="10"/>
<path d="M294.277 176.753C294.965 176.546 295.354 175.821 295.148 175.133C294.941 174.446 294.216 174.056 293.528 174.263C292.841 174.47 292.451 175.195 292.658 175.883C292.865 176.57 293.59 176.96 294.277 176.753Z" fill="white" stroke="white" stroke-width="2" stroke-miterlimit="10"/>
<path d="M298.581 202.117C300.183 201.635 301.091 199.945 300.609 198.342C300.126 196.74 298.436 195.832 296.834 196.314C295.232 196.797 294.324 198.487 294.806 200.089C295.288 201.691 296.978 202.599 298.581 202.117Z" fill="white" stroke="white" stroke-width="2" stroke-miterlimit="10"/>
<path d="M428.631 130.684C430.233 130.202 431.141 128.512 430.659 126.91C430.177 125.307 428.487 124.399 426.884 124.882C425.282 125.364 424.374 127.054 424.856 128.656C425.339 130.259 427.029 131.167 428.631 130.684Z" fill="white" stroke="white" stroke-width="2" stroke-miterlimit="10"/>
<path d="M196.868 290.535C197.556 290.328 197.945 289.603 197.738 288.915C197.531 288.228 196.806 287.838 196.119 288.045C195.431 288.252 195.042 288.977 195.249 289.665C195.456 290.352 196.181 290.742 196.868 290.535Z" fill="white" stroke="white" stroke-width="2" stroke-miterlimit="10"/>
<path d="M325.242 159.996C325.929 159.789 326.319 159.064 326.112 158.376C325.905 157.689 325.18 157.299 324.492 157.506C323.805 157.713 323.415 158.438 323.622 159.126C323.829 159.813 324.554 160.203 325.242 159.996Z" fill="white" stroke="white" stroke-width="2" stroke-miterlimit="10"/>
<path d="M385.747 232.64C386.434 232.433 386.824 231.708 386.617 231.021C386.41 230.333 385.685 229.944 384.997 230.151C384.31 230.358 383.92 231.083 384.127 231.77C384.334 232.458 385.059 232.847 385.747 232.64Z" fill="white" stroke="white" stroke-width="2" stroke-miterlimit="10"/>
<path d="M405.685 229.49C407.287 229.008 408.195 227.318 407.713 225.715C407.23 224.113 405.54 223.205 403.938 223.687C402.336 224.17 401.428 225.86 401.91 227.462C402.392 229.064 404.082 229.972 405.685 229.49Z" fill="white" stroke="white" stroke-width="2" stroke-miterlimit="10"/>
<path d="M532.226 157.222C532.913 157.015 533.303 156.29 533.096 155.603C532.889 154.915 532.164 154.526 531.476 154.733C530.789 154.94 530.399 155.665 530.606 156.352C530.813 157.04 531.538 157.429 532.226 157.222Z" fill="white" stroke="white" stroke-width="2" stroke-miterlimit="10"/>
<path d="M532.738 193.62C533.425 193.413 533.815 192.688 533.608 192C533.401 191.313 532.676 190.923 531.988 191.13C531.301 191.337 530.911 192.062 531.118 192.75C531.325 193.437 532.05 193.827 532.738 193.62Z" fill="white" stroke="white" stroke-width="2" stroke-miterlimit="10"/>
<path d="M560.067 208.087C561.669 207.604 562.577 205.914 562.095 204.312C561.613 202.71 559.923 201.802 558.32 202.284C556.718 202.766 555.81 204.456 556.292 206.059C556.775 207.661 558.465 208.569 560.067 208.087Z" fill="white" stroke="white" stroke-width="2" stroke-miterlimit="10"/>
<path d="M257.736 285.696C259.228 285.247 260.115 283.816 259.719 282.499C259.323 281.182 257.792 280.479 256.301 280.927C254.81 281.376 253.922 282.808 254.318 284.125C254.715 285.441 256.245 286.145 257.736 285.696Z" fill="white" stroke="white" stroke-width="2" stroke-miterlimit="10"/>
<path d="M161.453 362.141C162.093 361.948 162.474 361.333 162.303 360.768C162.133 360.202 161.476 359.899 160.836 360.092C160.196 360.284 159.816 360.899 159.986 361.465C160.156 362.031 160.813 362.333 161.453 362.141Z" fill="white" stroke="white" stroke-width="2" stroke-miterlimit="10"/>
<rect x="398.968" y="502.583" width="36" height="36" transform="rotate(-30 398.968 502.583)" fill="white"/>
<rect x="416.968" y="533.76" width="54" height="36" transform="rotate(-30 416.968 533.76)" fill="white"/>
<rect x="247.559" y="316.335" width="36" height="36" transform="rotate(-30 247.559 316.335)" fill="white"/>
<rect x="233.016" y="365.146" width="52" height="36" transform="rotate(-30 233.016 365.146)" fill="white"/>
<rect x="187.803" y="350.835" width="36" height="36" transform="rotate(-30 187.803 350.835)" fill="white"/>
<rect x="186.672" y="458.875" width="36" height="36" transform="rotate(-30 186.672 458.875)" fill="white"/>
<rect x="175.227" y="507.052" width="36" height="36" transform="rotate(-30 175.227 507.052)" fill="white"/>
<rect x="596.376" y="350.504" width="65" height="36" transform="rotate(-30 596.376 350.504)" fill="white"/>
<rect x="238.313" y="468.32" width="56" height="36" transform="rotate(-30 238.313 468.32)" fill="white"/>
<rect x="429.279" y="485.083" width="36" height="36" transform="rotate(-30 429.279 485.083)" fill="white"/>
<rect x="739.319" y="418.088" width="24" height="24" transform="rotate(-30 739.319 418.088)" fill="white"/>
<rect x="606.238" y="559.585" width="36" height="36" transform="rotate(-30 606.238 559.585)" fill="white"/>
<rect x="602.326" y="516.81" width="21" height="21" transform="rotate(-30 602.326 516.81)" fill="white"/>
<rect x="610.013" y="472.717" width="38.7894" height="38.7894" transform="rotate(-30 610.013 472.717)" fill="white"/>
<rect x="631.013" y="524.496" width="21" height="21" transform="rotate(-30 631.013 524.496)" fill="white"/>
<rect x="374.373" y="577.982" width="21" height="21" transform="rotate(-30 374.373 577.982)" fill="white"/>
<rect x="268.236" y="280.148" width="21" height="21" transform="rotate(-30 268.236 280.148)" fill="white"/>
<rect x="240.549" y="274.194" width="21" height="21" transform="rotate(-30 240.549 274.194)" fill="white"/>
<rect x="296.057" y="288.335" width="16" height="16" transform="rotate(-30 296.057 288.335)" fill="white"/>
<rect x="496.539" y="269.581" width="16" height="16" transform="rotate(-30 496.539 269.581)" fill="white"/>
<rect x="403.338" y="314.153" width="66" height="54" transform="rotate(-30 403.338 314.153)" fill="white"/>
<rect x="565.346" y="512.757" width="32" height="32" transform="rotate(-30 565.346 512.757)" fill="white"/>
<rect x="489.683" y="289.705" width="16" height="16" transform="rotate(-30 489.683 289.705)" fill="white"/>
<rect x="512.405" y="295.062" width="16" height="16" transform="rotate(-30 512.405 295.062)" fill="white"/>
<rect x="483.826" y="311.562" width="16" height="16" transform="rotate(-30 483.826 311.562)" fill="white"/>
<rect x="461.291" y="264.528" width="9" height="9" transform="rotate(-30 461.291 264.528)" fill="white"/>
<rect x="461.291" y="264.528" width="9" height="9" transform="rotate(-30 461.291 264.528)" fill="white"/>
<rect x="483.102" y="232.306" width="9" height="9" transform="rotate(-30 483.102 232.306)" fill="white"/>
<rect x="327.894" y="251.479" width="9" height="9" transform="rotate(-30 327.894 251.479)" fill="white"/>
<rect x="602.551" y="595.199" width="9" height="9" transform="rotate(-30 602.551 595.199)" fill="white"/>
<rect x="550.169" y="558.47" width="9" height="9" transform="rotate(-30 550.169 558.47)" fill="white"/>
<rect x="691.417" y="329.119" width="9" height="9" transform="rotate(-30 691.417 329.119)" fill="white"/>
<rect x="703.835" y="304.629" width="9" height="9" transform="rotate(-30 703.835 304.629)" fill="white"/>
<rect x="237.921" y="491.641" width="9" height="9" transform="rotate(-30 237.921 491.641)" fill="white"/>
<rect x="157.574" y="414.476" width="9" height="9" transform="rotate(-30 157.574 414.476)" fill="white"/>
<rect x="478.254" y="285.911" width="9" height="9" transform="rotate(-30 478.254 285.911)" fill="white"/>
<rect x="170.172" y="430.297" width="33" height="33" transform="rotate(-30 170.172 430.297)" fill="white"/>
<rect x="165.182" y="451.653" width="17" height="17" transform="rotate(-30 165.182 451.653)" fill="white"/>
<rect x="162.796" y="389.521" width="15" height="15" transform="rotate(-30 162.796 389.521)" fill="white"/>
<rect x="637.394" y="493.548" width="26.2225" height="26.2225" transform="rotate(-30 637.394 493.548)" fill="white"/>
<rect x="649.199" y="513.996" width="21" height="21" transform="rotate(-30 649.199 513.996)" fill="white"/>
<rect x="652.883" y="366.377" width="21" height="21" transform="rotate(-30 652.883 366.377)" fill="white"/>
<rect x="706.221" y="366.76" width="21" height="21" transform="rotate(-30 706.221 366.76)" fill="white"/>
<rect x="698.534" y="395.446" width="21" height="21" transform="rotate(-30 698.534 395.446)" fill="white"/>
<rect x="678.752" y="521.183" width="21" height="21" transform="rotate(-30 678.752 521.183)" fill="white"/>
<rect x="372.748" y="603.169" width="13" height="13" transform="rotate(-30 372.748 603.169)" fill="white"/>
<rect x="610.805" y="444.534" width="24.0125" height="24.0125" transform="rotate(-30 610.805 444.534)" fill="white"/>
<rect x="655.044" y="350.119" width="13" height="13" transform="rotate(-30 655.044 350.119)" fill="white"/>
<rect x="691.438" y="501.156" width="13" height="13" transform="rotate(-30 691.438 501.156)" fill="white"/>
<rect x="407.935" y="622.113" width="13" height="13" transform="rotate(-30 407.935 622.113)" fill="white"/>
<rect x="405.468" y="513.841" width="13" height="13" transform="rotate(-30 405.468 513.841)" fill="#104EEF"/>
<rect x="585.166" y="507.088" width="13" height="13" transform="rotate(-30 585.166 507.088)" fill="#104EEF"/>
<rect x="670.357" y="418.643" width="22" height="22" transform="rotate(-30 670.357 418.643)" fill="#104EEF"/>
<rect x="718.149" y="371.42" width="17" height="17" transform="rotate(-30 718.149 371.42)" fill="#104EEF"/>
<rect x="649.606" y="326.7" width="12" height="12" transform="rotate(-30 649.606 326.7)" fill="#104EEF"/>
<rect x="427.36" y="527.76" width="12" height="12" transform="rotate(-30 427.36 527.76)" fill="#104EEF"/>
<rect x="204.294" y="349.397" width="12" height="12" transform="rotate(-30 204.294 349.397)" fill="#85C3B4"/>
<rect x="270.647" y="320.325" width="12" height="12" transform="rotate(-30 270.647 320.325)" fill="#85C3B4"/>
<rect x="192.1" y="452.277" width="12" height="12" transform="rotate(-30 192.1 452.277)" fill="#85C3B4"/>
<rect x="270.798" y="270.586" width="12" height="12" transform="rotate(-30 270.798 270.586)" fill="#85C3B4"/>
<path d="M338.094 404V352.51H371.08V360.329H347.421V374.308H368.817V382.127H347.421V404H338.094ZM383.241 352.51V404H373.914V352.51H383.241ZM415.661 366.664C415.426 364.469 414.437 362.759 412.694 361.536C410.968 360.312 408.722 359.7 405.956 359.7C404.012 359.7 402.344 359.993 400.953 360.58C399.562 361.167 398.497 361.963 397.76 362.969C397.022 363.974 396.645 365.122 396.628 366.413C396.628 367.486 396.871 368.416 397.358 369.204C397.86 369.992 398.539 370.662 399.394 371.215C400.249 371.751 401.196 372.204 402.235 372.573C403.274 372.942 404.322 373.252 405.378 373.503L410.205 374.71C412.149 375.162 414.018 375.774 415.812 376.545C417.622 377.316 419.239 378.288 420.664 379.462C422.105 380.635 423.245 382.051 424.083 383.711C424.921 385.37 425.34 387.314 425.34 389.543C425.34 392.56 424.569 395.217 423.027 397.513C421.485 399.793 419.256 401.578 416.34 402.869C413.44 404.142 409.928 404.779 405.805 404.779C401.799 404.779 398.321 404.159 395.371 402.919C392.438 401.679 390.142 399.868 388.483 397.488C386.84 395.108 385.952 392.209 385.817 388.789H394.994C395.128 390.583 395.681 392.074 396.654 393.264C397.626 394.455 398.891 395.343 400.45 395.929C402.026 396.516 403.785 396.809 405.73 396.809C407.758 396.809 409.535 396.508 411.06 395.904C412.602 395.284 413.809 394.429 414.68 393.34C415.552 392.234 415.996 390.943 416.013 389.468C415.996 388.127 415.602 387.021 414.831 386.149C414.06 385.261 412.979 384.523 411.588 383.937C410.213 383.333 408.604 382.797 406.761 382.328L400.903 380.819C396.662 379.73 393.31 378.079 390.846 375.866C388.399 373.637 387.175 370.679 387.175 366.991C387.175 363.958 387.996 361.301 389.639 359.021C391.298 356.742 393.553 354.974 396.402 353.716C399.252 352.443 402.478 351.806 406.082 351.806C409.736 351.806 412.937 352.443 415.686 353.716C418.452 354.974 420.622 356.725 422.198 358.971C423.773 361.2 424.586 363.765 424.636 366.664H415.661ZM427.992 404V352.51H437.32V374.308H461.179V352.51H470.532V404H461.179V382.127H437.32V404H427.992ZM493.523 404H483.566L501.694 352.51H513.209L531.361 404H521.405L507.652 363.069H507.25L493.523 404ZM493.849 383.811H521.003V391.303H493.849V383.811ZM541.807 352.51V404H532.479V352.51H541.807Z" fill="#1E52DA"/>
<path d="M286.739 439.258H278.083C277.836 437.839 277.381 436.581 276.717 435.485C276.054 434.374 275.228 433.433 274.24 432.662C273.253 431.89 272.126 431.311 270.861 430.926C269.611 430.524 268.261 430.324 266.81 430.324C264.233 430.324 261.95 430.972 259.959 432.268C257.968 433.549 256.41 435.431 255.283 437.916C254.157 440.385 253.594 443.402 253.594 446.966C253.594 450.592 254.157 453.648 255.283 456.132C256.425 458.601 257.984 460.468 259.959 461.733C261.95 462.983 264.226 463.608 266.787 463.608C268.207 463.608 269.534 463.423 270.768 463.053C272.018 462.667 273.137 462.104 274.125 461.363C275.128 460.622 275.969 459.712 276.648 458.632C277.342 457.552 277.82 456.317 278.083 454.928L286.739 454.975C286.415 457.228 285.713 459.342 284.633 461.317C283.568 463.292 282.172 465.036 280.444 466.548C278.715 468.045 276.694 469.217 274.379 470.066C272.065 470.899 269.495 471.316 266.671 471.316C262.505 471.316 258.786 470.352 255.515 468.423C252.244 466.494 249.667 463.709 247.784 460.067C245.901 456.425 244.96 452.058 244.96 446.966C244.96 441.858 245.909 437.491 247.807 433.865C249.705 430.223 252.29 427.438 255.561 425.509C258.833 423.58 262.536 422.616 266.671 422.616C269.31 422.616 271.764 422.986 274.032 423.727C276.3 424.468 278.322 425.556 280.096 426.991C281.871 428.41 283.329 430.154 284.471 432.222C285.628 434.274 286.385 436.62 286.739 439.258ZM331.095 446.966C331.095 452.074 330.138 456.448 328.225 460.09C326.327 463.716 323.735 466.494 320.448 468.423C317.176 470.352 313.465 471.316 309.314 471.316C305.163 471.316 301.445 470.352 298.158 468.423C294.886 466.478 292.294 463.693 290.381 460.067C288.483 456.425 287.534 452.058 287.534 446.966C287.534 441.858 288.483 437.491 290.381 433.865C292.294 430.223 294.886 427.438 298.158 425.509C301.445 423.58 305.163 422.616 309.314 422.616C313.465 422.616 317.176 423.58 320.448 425.509C323.735 427.438 326.327 430.223 328.225 433.865C330.138 437.491 331.095 441.858 331.095 446.966ZM322.462 446.966C322.462 443.371 321.898 440.338 320.772 437.87C319.661 435.385 318.118 433.51 316.143 432.245C314.167 430.964 311.891 430.324 309.314 430.324C306.737 430.324 304.461 430.964 302.486 432.245C300.511 433.51 298.96 435.385 297.834 437.87C296.723 440.338 296.167 443.371 296.167 446.966C296.167 450.561 296.723 453.601 297.834 456.086C298.96 458.555 300.511 460.43 302.486 461.71C304.461 462.976 306.737 463.608 309.314 463.608C311.891 463.608 314.167 462.976 316.143 461.71C318.118 460.43 319.661 458.555 320.772 456.086C321.898 453.601 322.462 450.561 322.462 446.966ZM372.303 423.264V470.668H364.665L342.328 438.379H341.935V470.668H333.347V423.264H341.032L363.345 455.577H363.762V423.264H372.303ZM401.556 436.296C401.34 434.274 400.429 432.7 398.824 431.574C397.235 430.447 395.167 429.884 392.621 429.884C390.831 429.884 389.296 430.154 388.015 430.694C386.734 431.234 385.754 431.967 385.075 432.893C384.396 433.819 384.049 434.876 384.034 436.064C384.034 437.052 384.257 437.908 384.705 438.633C385.168 439.359 385.793 439.976 386.58 440.485C387.367 440.979 388.239 441.395 389.195 441.735C390.152 442.074 391.117 442.36 392.089 442.591L396.533 443.702C398.323 444.119 400.043 444.682 401.694 445.392C403.361 446.102 404.85 446.997 406.162 448.077C407.489 449.157 408.538 450.461 409.31 451.989C410.081 453.516 410.467 455.306 410.467 457.359C410.467 460.136 409.757 462.582 408.337 464.696C406.918 466.795 404.865 468.438 402.181 469.626C399.511 470.799 396.278 471.386 392.482 471.386C388.794 471.386 385.592 470.815 382.876 469.673C380.176 468.531 378.062 466.864 376.534 464.673C375.022 462.482 374.204 459.812 374.081 456.664H382.529C382.653 458.316 383.162 459.689 384.057 460.784C384.952 461.88 386.117 462.698 387.552 463.238C389.002 463.778 390.623 464.048 392.413 464.048C394.28 464.048 395.916 463.77 397.32 463.215C398.739 462.644 399.85 461.857 400.653 460.854C401.455 459.835 401.864 458.647 401.88 457.289C401.864 456.055 401.502 455.036 400.792 454.234C400.082 453.416 399.087 452.737 397.806 452.197C396.54 451.642 395.059 451.148 393.362 450.716L387.969 449.327C384.065 448.324 380.978 446.804 378.71 444.767C376.457 442.715 375.331 439.991 375.331 436.596C375.331 433.803 376.087 431.358 377.599 429.259C379.127 427.16 381.202 425.532 383.825 424.375C386.449 423.202 389.419 422.616 392.737 422.616C396.101 422.616 399.048 423.202 401.579 424.375C404.125 425.532 406.123 427.145 407.574 429.213C409.024 431.265 409.773 433.626 409.819 436.296H401.556ZM454.614 446.966C454.614 452.074 453.658 456.448 451.744 460.09C449.846 463.716 447.254 466.494 443.967 468.423C440.696 470.352 436.984 471.316 432.834 471.316C428.683 471.316 424.964 470.352 421.677 468.423C418.406 466.478 415.813 463.693 413.9 460.067C412.002 456.425 411.053 452.058 411.053 446.966C411.053 441.858 412.002 437.491 413.9 433.865C415.813 430.223 418.406 427.438 421.677 425.509C424.964 423.58 428.683 422.616 432.834 422.616C436.984 422.616 440.696 423.58 443.967 425.509C447.254 427.438 449.846 430.223 451.744 433.865C453.658 437.491 454.614 441.858 454.614 446.966ZM445.981 446.966C445.981 443.371 445.417 440.338 444.291 437.87C443.18 435.385 441.637 433.51 439.662 432.245C437.687 430.964 435.41 430.324 432.834 430.324C430.257 430.324 427.98 430.964 426.005 432.245C424.03 433.51 422.479 435.385 421.353 437.87C420.242 440.338 419.686 443.371 419.686 446.966C419.686 450.561 420.242 453.601 421.353 456.086C422.479 458.555 424.03 460.43 426.005 461.71C427.98 462.976 430.257 463.608 432.834 463.608C435.41 463.608 437.687 462.976 439.662 461.71C441.637 460.43 443.18 458.555 444.291 456.086C445.417 453.601 445.981 450.561 445.981 446.966ZM456.867 470.668V423.264H474.643C478.285 423.264 481.34 423.897 483.809 425.162C486.293 426.427 488.168 428.202 489.434 430.486C490.714 432.754 491.355 435.401 491.355 438.425C491.355 441.465 490.707 444.104 489.41 446.341C488.13 448.563 486.239 450.284 483.74 451.503C481.24 452.706 478.169 453.308 474.527 453.308H461.866V446.179H473.37C475.5 446.179 477.243 445.886 478.601 445.3C479.959 444.698 480.962 443.826 481.61 442.684C482.274 441.527 482.605 440.107 482.605 438.425C482.605 436.743 482.274 435.308 481.61 434.12C480.947 432.916 479.936 432.006 478.578 431.389C477.22 430.756 475.469 430.44 473.324 430.44H465.454V470.668H456.867ZM481.356 449.188L493.091 470.668H483.508L471.981 449.188H481.356ZM491.31 430.463V423.264H529.131V430.463H514.479V470.668H505.962V430.463H491.31ZM539.143 423.264V470.668H530.556V423.264H539.143ZM572.458 423.264H581.045V454.234C581.045 457.629 580.243 460.615 578.638 463.192C577.049 465.769 574.811 467.782 571.926 469.233C569.04 470.668 565.669 471.386 561.811 471.386C557.938 471.386 554.558 470.668 551.673 469.233C548.787 467.782 546.55 465.769 544.96 463.192C543.371 460.615 542.576 457.629 542.576 454.234V423.264H551.163V453.516C551.163 455.492 551.596 457.251 552.46 458.794C553.339 460.337 554.574 461.548 556.163 462.428C557.752 463.292 559.635 463.724 561.811 463.724C563.987 463.724 565.869 463.292 567.459 462.428C569.063 461.548 570.298 460.337 571.162 458.794C572.026 457.251 572.458 455.492 572.458 453.516V423.264ZM584.513 423.264H595.022L609.095 457.613H609.65L623.723 423.264H634.232V470.668H625.991V438.101H625.552L612.451 470.529H606.294L593.193 438.032H592.753V470.668H584.513V423.264Z" fill="#85C3B4"/>
</g>
<defs>
<clipPath id="clip0_852_4771">
<rect width="900" height="900" fill="white"/>
</clipPath>
</defs>
</svg>
